<?xml version="1.0" encoding="utf-8"?>
<!-- Generator: Adobe Illustrator 21.0.0, SVG Export Plug-In . SVG Version: 6.00 Build 0)  -->
<svg version="1.1" id="Layer_2" xmlns="http://www.w3.org/2000/svg" xmlns:xlink="http://www.w3.org/1999/xlink" x="0px" y="0px"
	 viewBox="0 0 400 400" style="enable-background:new 0 0 400 400;" xml:space="preserve">
<style type="text/css">
	.st0{fill:#B29659;}
	.st1{fill:#1A2E5A;}
	.st2{fill:#FFFFFF;}
	.st3{fill:#E01E37;}
</style>
<g id="Layer_2_1_">
	<path class="st0" d="M398.7,180.5l-3.4-2.1c-52.8-30.7-129.3-45.9-164.4-46.5h-0.5c-5.8,0-9.8,2-11.9,5.9c-1.8,3.3-1.6,6.7-0.7,9.5
		c-0.6-0.7-1.5-1.4-2.4-2.1c-2.9-2.2-6.2-3.8-6.2-3.8s0.4,2.8-0.6,2.4c-0.5-0.2-1.1-0.4-1.7-0.7c-2.8-1.4-7-3.8-7-3.8
		s-4.2,2.5-7,3.8c-0.7,0.3-1.2,0.6-1.7,0.7c-1,0.3-0.6-2.4-0.6-2.4s-3.4,1.7-6.2,3.8c-1,0.7-1.8,1.4-2.4,2.1
		c0.9-2.8,1.1-6.2-0.7-9.5c-2.1-3.9-6.1-5.9-11.9-5.9h-0.5c-35.1,0.6-111.7,15.8-164.4,46.5L1,180.5c0,0,5.2,13.2,17.9,16.9
		l-1.7,0.8c0,0,7.2,11.7,18.4,14.1l-2.1,0.9c0,0,7.9,12.8,23.2,15.5l-2.3,1.1c0,0,10.9,11.8,27.7,12.9l-2.4,1.9
		c0,0,11.1,7.4,27.5,9.3l-2.6,2.3c0,0,29.1,10.6,53.5,1.8c6.7,16.9,23.2,28.3,41.8,28.3l0,0l0,0c18.5,0,34.9-11.4,41.8-28.3
		c24.3,8.9,53.5-1.8,53.5-1.8l-2.8-2.3c16.4-1.9,27.5-9.3,27.5-9.3l-2.4-1.9c16.8-1.1,27.7-12.9,27.7-12.9l-2.3-1.1
		c15.3-2.7,23.2-15.5,23.2-15.5l-2.1-0.9c11.2-2.4,18.4-14.1,18.4-14.1l-1.7-0.8C393.6,193.7,398.7,180.5,398.7,180.5"/>
	<path class="st1" d="M393.2,182c-51.6-30-127.4-45.4-162.4-46c-4.2-0.1-7.1,1-8.6,3.7c-2.4,4.6,1,9.7,2.5,11.9
		c3.2,4.7,7.4,12.1,7.4,21c0,17.2-13.9,30-31.1,30c-0.4,0-0.7,0-1.1,0c-0.4,0-0.7,0-1.1,0c-17.2,0-31.1-12.7-31.1-30
		c0-8.9,4.2-16.3,7.4-21c1.5-2.2,4.9-7.3,2.5-11.9c-1.5-2.7-4.3-3.8-8.6-3.7c-35,0.6-110.7,15.9-162.4,46c0,0.1,8.3,14.2,24.7,13
		c-2.5,1.2-5.1,2.5-7.6,3.8c0,0.2,7.5,12.5,25.6,10.7c-3,1.4-6,2.9-9,4.4c0,0.2,8.7,12.3,27.7,11.9c-4.4,2.2-7,3.6-7,3.6
		c0,0.1,12.6,12.2,32.9,8.9c-2.2,1.6-4.4,3.3-7,5.1c0,0,14.9,8.2,32.5,5.6c-2.3,1.7-4.5,3.4-6.8,5.2c0-0.2,26.9,7.4,46.1-1.1
		c16.5-7.2,25.6-25,27.7-29.5c3.2,0.7,6.1,1.1,8.2,1.4c0,0.2,3.5,0.5,5.2,0.5c1.8,0.1,5.3-0.2,5.2-0.5c2.2-0.3,5-0.7,8.2-1.4
		c2.1,4.5,11.2,22.3,27.7,29.5c19.1,8.4,46.1,0.8,46.1,1.1c-2.3-1.8-4.5-3.5-6.8-5.2c17.5,2.5,32.4-5.6,32.4-5.6
		c-2.6-1.8-4.8-3.5-7-5.1c20.3,3.3,32.9-8.8,32.9-8.9c0,0-2.6-1.4-7-3.6c19,0.3,27.7-11.8,27.7-11.9c-3-1.5-6-2.9-9-4.4
		c18.1,1.8,25.5-10.5,25.6-10.7c-2.5-1.3-5-2.6-7.6-3.8C385,196.2,393.2,182.2,393.2,182"/>
	<path class="st2" d="M185,214.7c0,0-46.1-15.4-26-64.5c0,0-48.8,2-115.5,28.9c0,0-4.7,2-7.4,2.9c-2.7,1-7.1,2.7-13.4-0.3
		c0,0,61.1-31.9,139.6-39.3c10.3-1,11.7,0.6,9,4.5C168.9,150.1,140.9,185.8,185,214.7"/>
	<path class="st0" d="M144.1,164c-39.5,5.2-78.1,19-78.1,19c6.6,11.7,24.4,6.8,24.4,6.8c33.4-9.5,48.4-12.7,53.2-13.6
		C143.4,172.4,143.6,168.4,144.1,164"/>
	<path class="st0" d="M144.4,183.3c-6.6,1.3-34.2,6.9-62.2,17.4c0,0,8.8,10,26.2,5.1c14.7-4.2,33.4-10.1,39.1-11.9
		C146.2,190.6,145.1,187.1,144.4,183.3"/>
	<path class="st0" d="M150.5,199.3c-5.9,1.9-35.7,11.6-48.4,16.4c0,0,7.2,9.7,28,1.5c14.5-5.7,22.5-9,26-10.5
		C154.2,204.5,152.2,202,150.5,199.3"/>
	<path class="st0" d="M160.9,210.8c-5.2,2.3-24.5,10.7-35.7,16.1c0,0,14.1,6.9,31.7-4l11-7.2C165.5,214.3,163.1,212.7,160.9,210.8"
		/>
	<path class="st0" d="M173.3,218.5c-3.5,2.2-18.2,11.4-25.3,16.7c0,0,12.1,5,24.6-6.7c4.1-3.8,6.3-6,7.5-7.2
		C177.9,220.5,175.6,219.6,173.3,218.5"/>
	<path class="st2" d="M214.8,214.7c0,0,46.1-15.4,26-64.5c0,0,48.8,2,115.5,28.9c0,0,4.7,2,7.4,2.9c2.7,1,7.1,2.7,13.4-0.3
		c0,0-61.1-31.9-139.6-39.3c-10.3-1-11.7,0.6-9,4.5C230.8,150.1,258.8,185.8,214.8,214.7"/>
	<path class="st0" d="M255.6,164c39.4,5.1,78.1,18.9,78.1,18.9c-6.6,11.7-24.4,6.8-24.4,6.8c-33.4-9.5-48.4-12.7-53.2-13.6
		C256.4,172.4,256.2,168.4,255.6,164"/>
	<path class="st0" d="M255.4,183.3c6.6,1.3,34.2,6.9,62.2,17.4c0,0-8.8,10-26.2,5.1c-14.7-4.2-33.4-10.1-39-11.9
		C253.6,190.6,254.7,187.1,255.4,183.3"/>
	<path class="st0" d="M249.2,199.3c5.9,1.9,35.7,11.6,48.4,16.4c0,0-7.2,9.7-28,1.5c-14.5-5.7-22.5-9-26-10.5
		C245.6,204.5,247.5,202,249.2,199.3"/>
	<path class="st0" d="M238.9,210.8c5.2,2.3,24.5,10.7,35.7,16.1c0,0-14.1,6.9-31.7-4l-11-7.2C234.2,214.3,236.6,212.7,238.9,210.8"
		/>
	<path class="st0" d="M226.5,218.5c3.5,2.2,18.2,11.4,25.3,16.7c0,0-12.1,5-24.6-6.7c-4-3.8-6.3-6-7.5-7.2
		C221.9,220.5,224.2,219.6,226.5,218.5"/>
	<path class="st2" d="M237.6,241.4c0,20.8-16.9,37.7-37.7,37.7s-37.7-16.9-37.7-37.7s16.9-37.7,37.7-37.7
		C220.7,203.7,237.6,220.6,237.6,241.4"/>
	<path class="st0" d="M229.8,249.3c0,16.5-13.4,29.9-29.9,29.9S170,265.8,170,249.3s13.4-29.9,29.9-29.9
		C216.4,219.3,229.8,232.7,229.8,249.3"/>
	<path class="st1" d="M199.9,200.8c-22.4,0-40.7,18.2-40.7,40.7s18.2,40.7,40.7,40.7s40.7-18.2,40.7-40.7
		C240.6,219,222.3,200.8,199.9,200.8 M234.1,234.9c-2.5,10.1-9.4,18.3-18.3,22.8c0.7-5,2.9-9.9,5.1-15c3.3-7.4,6.8-15.5,5.3-24.1
		C230.1,223.1,232.9,228.7,234.1,234.9 M182,211.6c4.5-2.7,9.8-4.4,15.3-4.8v54.8c-2.8-0.2-5.5-0.7-8-1.5
		c-0.3-6.8-3.1-13.1-5.8-19.2C179,230.4,175.1,221.6,182,211.6 M189,265.2c2.7,0.7,5.5,1.2,8.4,1.4v9.7c-4.6-0.3-8.9-1.5-12.8-3.5
		C186.4,271,188.4,268.4,189,265.2 M202.4,266.5c2.9-0.2,5.7-0.6,8.4-1.4c0.6,3.2,2.6,5.8,4.4,7.6c-3.9,1.9-8.2,3.1-12.8,3.5
		L202.4,266.5L202.4,266.5z M210.5,259.9c-2.6,0.8-5.3,1.4-8.1,1.6v-54.8c5.6,0.4,10.8,2.1,15.3,4.8c6.9,10,3,18.9-1.5,29.1
		C213.6,246.9,210.8,253.2,210.5,259.9 M173.6,218.6c-1.6,8.6,2,16.7,5.3,24.1c2.3,5.1,4.4,10.1,5.1,15.1c-9-4.5-15.8-12.7-18.3-23
		C166.9,228.7,169.7,223.1,173.6,218.6 M165.6,247.6c4.4,7.1,10.8,12.7,18.5,15.9c0,0.2,0,0.5-0.1,0.7c-0.4,2.6-2.5,4.7-4.1,5.9
		C172.6,264.9,167.2,256.9,165.6,247.6 M219.8,270c-1.5-1.2-3.7-3.3-4.1-5.9c0-0.2-0.1-0.5-0.1-0.7c7.7-3.2,14.1-8.8,18.5-15.9
		C232.5,256.9,227.2,264.9,219.8,270"/>
	<path class="st1" d="M212,147.9c0,0-0.3,1.3-1.1,1.3s-5.7-2.3-8-3.6c-1-0.5-2.4-1.4-2.9-1.6c0,0-2.1,1.1-3.1,1.6
		c-2.3,1.3-7.2,3.6-8,3.6s-1.1-1.3-1.1-1.3S175,155.6,175,177c0,15.9,8.3,23.1,8.3,23.1l1.1,4.5h14.1h2.8h14.1l1.1-4.5
		c0,0,8.3-7.2,8.3-23.1C224.8,155.7,212,147.9,212,147.9"/>
	<path class="st2" d="M218.1,171.7c0-6.6-2.7-12-5.6-15.2c0,0-0.1,1.9-3.3-0.2c-2.7-1.9-5.9-3-9.4-3s-6.7,1.1-9.4,3
		c-3,2.1-3.2,0.2-3.2,0.2c-2.9,3.2-5.6,8.6-5.6,15.2c0,5.5,1.3,8.2,1.8,8.9c2.7,7,9,11.9,16.3,11.9c7.2,0,13.5-4.8,16.2-11.7
		C216.3,180.7,218.1,178,218.1,171.7"/>
	<path class="st1" d="M206.8,186.6c0,0,0-0.1-0.1-0.1c0,0-1.8-3.4,1.2-5.7c0,0,6.7,1.4,6.9-7.5c0,0-0.2-0.9,0.8-2.8
		c0,0-1.7-1.6-5.5,1.2c-3.7,2.8-5.8,10.8-7.8,8.9c-2-1.9-1.3-12.2-2.3-12.6l0,0c-1,0.4-0.3,10.7-2.3,12.6c-2,1.9-4.1-6.1-7.8-8.9
		c-3.7-2.8-5.5-1.2-5.5-1.2c0.9,1.9,0.8,2.8,0.8,2.8c0.2,8.9,6.9,7.5,6.9,7.5c3,2.3,1.2,5.7,1.2,5.7s0,0.1-0.1,0.1
		c-8-8.6-12.6-7.4-10.4,2.2c2.3,9.4,10.9,50.1,12.3,59.6c-0.2,8.5-1.2,11.5-1.4,12.1l-0.9,1.7l1,1.9c1.5,2.2,2.6,4.7,3,5.6l3.3,8.4
		l3.3-8.4c0.4-1,1.4-3.5,3-5.7l1-1.8l-0.9-1.8c-0.3-0.6-1.2-3.5-1.4-11.7c1.1-8.4,10-50.4,12.3-60
		C219.4,179.2,214.8,178,206.8,186.6"/>
	<path class="st3" d="M194.4,228.9c-2.9-15.1-5.1-26.3-7-34.4c-1.4-6.2,2.3-3.7,4.3,0.2L194.4,228.9z"/>
	<path class="st3" d="M205.4,228.9c2.9-15.1,5.1-26.3,7-34.4c1.4-6.2-2.3-3.7-4.3,0.2L205.4,228.9z"/>
	<path class="st3" d="M189.9,177.8c-0.6-0.2-0.9-0.7-0.7-1.3c0.1-0.2,0.2-0.4,0.4-0.5c-0.4-0.4-0.8-0.8-1.3-1.2c0,0-0.9,4.4,3,3.9
		c0,0-0.1-0.4-0.4-0.9C190.4,177.8,190.2,177.9,189.9,177.8"/>
	<path class="st3" d="M211.6,174.7c-0.5,0.4-1,0.8-1.3,1.2c0.2,0.1,0.3,0.3,0.4,0.5c0.2,0.6-0.2,1.2-0.8,1.3c-0.3,0.1-0.6,0-0.8-0.1
		c-0.3,0.6-0.4,0.9-0.4,0.9C212.5,179.1,211.6,174.7,211.6,174.7"/>
	<path class="st3" d="M201.8,234.5c1.2-23.3,3.1-40,3.1-42c0-0.7-0.1-1.7-0.4-2.7l-1.4,4.4l-0.4-7.8c-0.7-0.9-1.6-1.8-2.8-2.6h-0.1
		c-1.2,0.8-2,1.7-2.7,2.6l-0.4,7.8l-1.4-4.4c-0.3,1-0.4,2-0.4,2.7c0,2.1,1.8,18.6,3.1,42c1.2,23.3-1.7,27.7-1.7,27.7
		c1.7,2.4,3.5,6.7,3.5,6.7s1.8-4.3,3.5-6.7C203.4,262.3,200.5,258,201.8,234.5"/>
	<path class="st1" d="M393.2,182c-51.6-30-127.4-45.4-162.4-46c-4.2-0.1-7.1,1-8.6,3.7c-2.4,4.6,1,9.7,2.5,11.9
		c3.2,4.7,7.4,12.1,7.4,21c0,17.2-13.9,30-31.1,30c-0.4,0-0.7,0-1.1,0c-0.4,0-0.7,0-1.1,0c-17.2,0-31.1-12.7-31.1-30
		c0-8.9,4.2-16.3,7.4-21c1.5-2.2,4.9-7.3,2.5-11.9c-1.5-2.7-4.3-3.8-8.6-3.7c-35,0.6-110.7,15.9-162.4,46c0,0.1,8.3,14.2,24.7,13
		c-2.5,1.2-5.1,2.5-7.6,3.8c0,0.2,7.5,12.5,25.6,10.7c-3,1.4-6,2.9-9,4.4c0,0.2,8.7,12.3,27.7,11.9c-4.4,2.2-7,3.6-7,3.6
		c0,0.1,12.6,12.2,32.9,8.9c-2.2,1.6-4.4,3.3-7,5.1c0,0,14.9,8.2,32.5,5.6c-2.3,1.7-4.5,3.4-6.8,5.2c0-0.2,26.9,7.4,46.1-1.1
		c16.5-7.2,25.6-25,27.7-29.5c3.2,0.7,6.1,1.1,8.2,1.4c0,0.2,3.5,0.5,5.2,0.5c1.8,0.1,5.3-0.2,5.2-0.5c2.2-0.3,5-0.7,8.2-1.4
		c2.1,4.5,11.2,22.3,27.7,29.5c19.1,8.4,46.1,0.8,46.1,1.1c-2.3-1.8-4.5-3.5-6.8-5.2c17.5,2.5,32.4-5.6,32.4-5.6
		c-2.6-1.8-4.8-3.5-7-5.1c20.3,3.3,32.9-8.8,32.9-8.9c0,0-2.6-1.4-7-3.6c19,0.3,27.7-11.8,27.7-11.9c-3-1.5-6-2.9-9-4.4
		c18.1,1.8,25.5-10.5,25.6-10.7c-2.5-1.3-5-2.6-7.6-3.8C385,196.2,393.2,182.2,393.2,182"/>
	<path class="st2" d="M185,214.7c0,0-46.1-15.4-26-64.5c0,0-48.8,2-115.5,28.9c0,0-4.7,2-7.4,2.9c-2.7,1-7.1,2.7-13.4-0.3
		c0,0,61.1-31.9,139.6-39.3c10.3-1,11.7,0.6,9,4.5C168.9,150.1,140.9,185.8,185,214.7"/>
	<path class="st0" d="M144.1,164c-39.5,5.2-78.1,19-78.1,19c6.6,11.7,24.4,6.8,24.4,6.8c33.4-9.5,48.4-12.7,53.2-13.6
		C143.4,172.4,143.6,168.4,144.1,164"/>
	<path class="st0" d="M144.4,183.3c-6.6,1.3-34.2,6.9-62.2,17.4c0,0,8.8,10,26.2,5.1c14.7-4.2,33.4-10.1,39.1-11.9
		C146.2,190.6,145.1,187.1,144.4,183.3"/>
	<path class="st0" d="M150.5,199.3c-5.9,1.9-35.7,11.6-48.4,16.4c0,0,7.2,9.7,28,1.5c14.5-5.7,22.5-9,26-10.5
		C154.2,204.5,152.2,202,150.5,199.3"/>
	<path class="st0" d="M160.9,210.8c-5.2,2.3-24.5,10.7-35.7,16.1c0,0,14.1,6.9,31.7-4l11-7.2C165.5,214.3,163.1,212.7,160.9,210.8"
		/>
	<path class="st0" d="M173.3,218.5c-3.5,2.2-18.2,11.4-25.3,16.7c0,0,12.1,5,24.6-6.7c4.1-3.8,6.3-6,7.5-7.2
		C177.9,220.5,175.6,219.6,173.3,218.5"/>
	<path class="st2" d="M214.8,214.7c0,0,46.1-15.4,26-64.5c0,0,48.8,2,115.5,28.9c0,0,4.7,2,7.4,2.9c2.7,1,7.1,2.7,13.4-0.3
		c0,0-61.1-31.9-139.6-39.3c-10.3-1-11.7,0.6-9,4.5C230.8,150.1,258.8,185.8,214.8,214.7"/>
	<path class="st0" d="M255.6,164c39.4,5.1,78.1,18.9,78.1,18.9c-6.6,11.7-24.4,6.8-24.4,6.8c-33.4-9.5-48.4-12.7-53.2-13.6
		C256.4,172.4,256.2,168.4,255.6,164"/>
	<path class="st0" d="M255.4,183.3c6.6,1.3,34.2,6.9,62.2,17.4c0,0-8.8,10-26.2,5.1c-14.7-4.2-33.4-10.1-39-11.9
		C253.6,190.6,254.7,187.1,255.4,183.3"/>
	<path class="st0" d="M249.2,199.3c5.9,1.9,35.7,11.6,48.4,16.4c0,0-7.2,9.7-28,1.5c-14.5-5.7-22.5-9-26-10.5
		C245.6,204.5,247.5,202,249.2,199.3"/>
	<path class="st0" d="M238.9,210.8c5.2,2.3,24.5,10.7,35.7,16.1c0,0-14.1,6.9-31.7-4l-11-7.2C234.2,214.3,236.6,212.7,238.9,210.8"
		/>
	<path class="st0" d="M226.5,218.5c3.5,2.2,18.2,11.4,25.3,16.7c0,0-12.1,5-24.6-6.7c-4-3.8-6.3-6-7.5-7.2
		C221.9,220.5,224.2,219.6,226.5,218.5"/>
	<path class="st2" d="M237.6,241.4c0,20.8-16.9,37.7-37.7,37.7s-37.7-16.9-37.7-37.7s16.9-37.7,37.7-37.7
		C220.7,203.7,237.6,220.6,237.6,241.4"/>
	<path class="st0" d="M229.8,249.3c0,16.5-13.4,29.9-29.9,29.9S170,265.8,170,249.3s13.4-29.9,29.9-29.9
		C216.4,219.3,229.8,232.7,229.8,249.3"/>
	<path class="st1" d="M199.9,200.8c-22.4,0-40.7,18.2-40.7,40.7s18.2,40.7,40.7,40.7s40.7-18.2,40.7-40.7
		C240.6,219,222.3,200.8,199.9,200.8 M234.1,234.9c-2.5,10.1-9.4,18.3-18.3,22.8c0.7-5,2.9-9.9,5.1-15c3.3-7.4,6.8-15.5,5.3-24.1
		C230.1,223.1,232.9,228.7,234.1,234.9 M182,211.6c4.5-2.7,9.8-4.4,15.3-4.8v54.8c-2.8-0.2-5.5-0.7-8-1.5
		c-0.3-6.8-3.1-13.1-5.8-19.2C179,230.4,175.1,221.6,182,211.6 M189,265.2c2.7,0.7,5.5,1.2,8.4,1.4v9.7c-4.6-0.3-8.9-1.5-12.8-3.5
		C186.4,271,188.4,268.4,189,265.2 M202.4,266.5c2.9-0.2,5.7-0.6,8.4-1.4c0.6,3.2,2.6,5.8,4.4,7.6c-3.9,1.9-8.2,3.1-12.8,3.5
		L202.4,266.5L202.4,266.5z M210.5,259.9c-2.6,0.8-5.3,1.4-8.1,1.6v-54.8c5.6,0.4,10.8,2.1,15.3,4.8c6.9,10,3,18.9-1.5,29.1
		C213.6,246.9,210.8,253.2,210.5,259.9 M173.6,218.6c-1.6,8.6,2,16.7,5.3,24.1c2.3,5.1,4.4,10.1,5.1,15.1c-9-4.5-15.8-12.7-18.3-23
		C166.9,228.7,169.7,223.1,173.6,218.6 M165.6,247.6c4.4,7.1,10.8,12.7,18.5,15.9c0,0.2,0,0.5-0.1,0.7c-0.4,2.6-2.5,4.7-4.1,5.9
		C172.6,264.9,167.2,256.9,165.6,247.6 M219.8,270c-1.5-1.2-3.7-3.3-4.1-5.9c0-0.2-0.1-0.5-0.1-0.7c7.7-3.2,14.1-8.8,18.5-15.9
		C232.5,256.9,227.2,264.9,219.8,270"/>
	<path class="st1" d="M212,147.9c0,0-0.3,1.3-1.1,1.3s-5.7-2.3-8-3.6c-1-0.5-2.4-1.4-2.9-1.6c0,0-2.1,1.1-3.1,1.6
		c-2.3,1.3-7.2,3.6-8,3.6s-1.1-1.3-1.1-1.3S175,155.6,175,177c0,15.9,8.3,23.1,8.3,23.1l1.1,4.5h14.1h2.8h14.1l1.1-4.5
		c0,0,8.3-7.2,8.3-23.1C224.8,155.7,212,147.9,212,147.9"/>
	<path class="st2" d="M218.1,171.7c0-6.6-2.7-12-5.6-15.2c0,0-0.1,1.9-3.3-0.2c-2.7-1.9-5.9-3-9.4-3s-6.7,1.1-9.4,3
		c-3,2.1-3.2,0.2-3.2,0.2c-2.9,3.2-5.6,8.6-5.6,15.2c0,5.5,1.3,8.2,1.8,8.9c2.7,7,9,11.9,16.3,11.9c7.2,0,13.5-4.8,16.2-11.7
		C216.3,180.7,218.1,178,218.1,171.7"/>
	<path class="st1" d="M206.8,186.6c0,0,0-0.1-0.1-0.1c0,0-1.8-3.4,1.2-5.7c0,0,6.7,1.4,6.9-7.5c0,0-0.2-0.9,0.8-2.8
		c0,0-1.7-1.6-5.5,1.2c-3.7,2.8-5.8,10.8-7.8,8.9c-2-1.9-1.3-12.2-2.3-12.6l0,0c-1,0.4-0.3,10.7-2.3,12.6c-2,1.9-4.1-6.1-7.8-8.9
		c-3.7-2.8-5.5-1.2-5.5-1.2c0.9,1.9,0.8,2.8,0.8,2.8c0.2,8.9,6.9,7.5,6.9,7.5c3,2.3,1.2,5.7,1.2,5.7s0,0.1-0.1,0.1
		c-8-8.6-12.6-7.4-10.4,2.2c2.3,9.4,10.9,50.1,12.3,59.6c-0.2,8.5-1.2,11.5-1.4,12.1l-0.9,1.7l1,1.9c1.5,2.2,2.6,4.7,3,5.6l3.3,8.4
		l3.3-8.4c0.4-1,1.4-3.5,3-5.7l1-1.8l-0.9-1.8c-0.3-0.6-1.2-3.5-1.4-11.7c1.1-8.4,10-50.4,12.3-60
		C219.4,179.2,214.8,178,206.8,186.6"/>
	<path class="st3" d="M194.4,228.9c-2.9-15.1-5.1-26.3-7-34.4c-1.4-6.2,2.3-3.7,4.3,0.2L194.4,228.9z"/>
	<path class="st3" d="M205.4,228.9c2.9-15.1,5.1-26.3,7-34.4c1.4-6.2-2.3-3.7-4.3,0.2L205.4,228.9z"/>
	<path class="st3" d="M189.9,177.8c-0.6-0.2-0.9-0.7-0.7-1.3c0.1-0.2,0.2-0.4,0.4-0.5c-0.4-0.4-0.8-0.8-1.3-1.2c0,0-0.9,4.4,3,3.9
		c0,0-0.1-0.4-0.4-0.9C190.4,177.8,190.2,177.9,189.9,177.8"/>
	<path class="st3" d="M211.6,174.7c-0.5,0.4-1,0.8-1.3,1.2c0.2,0.1,0.3,0.3,0.4,0.5c0.2,0.6-0.2,1.2-0.8,1.3c-0.3,0.1-0.6,0-0.8-0.1
		c-0.3,0.6-0.4,0.9-0.4,0.9C212.5,179.1,211.6,174.7,211.6,174.7"/>
	<path class="st3" d="M201.8,234.5c1.2-23.3,3.1-40,3.1-42c0-0.7-0.1-1.7-0.4-2.7l-1.4,4.4l-0.4-7.8c-0.7-0.9-1.6-1.8-2.8-2.6h-0.1
		c-1.2,0.8-2,1.7-2.7,2.6l-0.4,7.8l-1.4-4.4c-0.3,1-0.4,2-0.4,2.7c0,2.1,1.8,18.6,3.1,42c1.2,23.3-1.7,27.7-1.7,27.7
		c1.7,2.4,3.5,6.7,3.5,6.7s1.8-4.3,3.5-6.7C203.4,262.3,200.5,258,201.8,234.5"/>
</g>
</svg>
