<svg xmlns="http://www.w3.org/2000/svg" width="13" height="30" viewBox="0 0 13 30">
    <g fill="none" fill-rule="evenodd">
        <path d="M0 0H30V30H0z" transform="translate(-9)"/>
        <g>
            <path fill="#FFFFFE" d="M9.907 0h-6.87C1.361 0 0 1.363 0 3.037V26.3c0 1.676 1.361 3.04 3.037 3.04h6.865c1.676 0 3.044-1.364 3.044-3.04V3.037C12.946 1.363 11.582 0 9.907 0" transform="translate(-9) translate(9)"/>
            <path fill="#B52532" d="M8.203 5.379l.007.1c.21.121.316.22.527.357.56.352 1.25.979 1.163 3.14.157.47.227 1.396.372 1.693.292.578.487.955.572 1.5 0 0 .084.851.194.912.579.131.412.188.496.288.09.116.425.11.425.422.116.156.201.317.267.485V3.036c0-1.28-1.042-2.32-2.319-2.32h-2.22c.357.127.558.276.676.514.286.024.627.667.096 1.616.235.156.052.39-.117.662-.05.087-.103.242-.26.231-.202.424-.445.835-.63.861-.055.069-.095.251-.012.337.27.121.6.287.763.442M12.226 15.799c-.301.764-1.051 1.304-1.927 1.304-1.146 0-2.07-.927-2.07-2.07 0-.976.671-1.794 1.582-2.013-.239-.597-.742-1.565-.892-1.882-.142-.316-.483-2.284-.556-2.673-.017-.085-.893.508-.895.545-.051.05-.658 1.633-.683 1.718-.012.054-.014.266-.014.266s.298.037.47.557c.17.52.687 2.415.687 2.415s-.14.145-.146.136c.654 2.19.426 3.131.719 3.773.369.905.468.786.785 1.546.226.554.48 2.734.564 2.83.353.448.543.797.543 1.05 0 .254-.299 1.004-.19 1.442.066.257.1.833.22.943 0 0 .11.216.056.312-.015.034-.046.084-.032.123.194.688.823 1.86-.195 2.474h.022c1.11-.172 1.952-1.125 1.952-2.295V15.799" transform="translate(-9) translate(9)"/>
            <path fill="#253B73" d="M9.612 25.854c-.373-.333-.124-.474-.139-.605-.246-1.016-1.053-1.631-.636-1.966-.103-.336-.312-.757-.305-.757-1.258-.722-2.329-1.895-2.51-2.067-.221-.24-.597-.48-.668-.676-.302-.277-1.785-2.38-2.13-3.155l-.602-.085c-.273-1.118-1.187-2.055-1.21-3.177-.008-.423.192-1.331.267-1.513.073-.183.423-.485.423-.485v-.3c-1.312.038-.935-.096-1.161-.607-.16-.353-.045-.43.012-.676.176-.723.761-1.839 1.003-2.346.074-.256.327-.873.327-.873.979-1.992 1.344-1.845 2.506-1.958l.057-.082c1.164-.05.974-.138 1.138-1.26-.17.073-.22-.351-.22-.351-.093-.638.176-.517.304-.53.028-1.05.135-1.38.892-1.67H3.038C1.755.716.716 1.757.716 3.039V26.3c0 1.283 1.04 2.323 2.322 2.323h6.87c-.787-.425-.323-1.233-.296-2.77" transform="translate(-9) translate(9)"/>
        </g>
    </g>
</svg>
